HIERARCHY
ROOT Hips
{
  OFFSET 0.000000 0.000000 0.000000
  CHANNELS 6 Xposition Yposition Zposition Xrotation Yrotation Zrotation
  JOINT Spine
  {
    OFFSET 0.211591 24.227834 -3.764787
    CHANNELS 3 Xrotation Yrotation Zrotation
    JOINT Chest
    {
      OFFSET 0.211591 24.227834 -3.764787
      CHANNELS 3 Xrotation Yrotation Zrotation
      JOINT Neck
      {
        OFFSET -1.100772 8.441563 -3.430650
        CHANNELS 3 Xrotation Yrotation Zrotation
        JOINT Head
        {
          OFFSET -1.192129 7.757112 -7.601908
          CHANNELS 3 Xrotation Yrotation Zrotation
          End Site
          {
            OFFSET -0.357639 2.327134 -2.280572
          }
        }
      }
      JOINT LeftShoulder
      {
        OFFSET 17.192089 0.613400 -1.554494
        CHANNELS 3 Xrotation Yrotation Zrotation
        JOINT LeftArm
        {
          OFFSET 6.822346 -20.001605 -11.416031
          CHANNELS 3 Xrotation Yrotation Zrotation
          JOINT LeftForeArm
          {
            OFFSET -10.811707 -3.287858 -20.004664
            CHANNELS 3 Xrotation Yrotation Zrotation
            JOINT LeftHand
            {
              OFFSET -2.972239 -0.032078 -2.791873
              CHANNELS 3 Xrotation Yrotation Zrotation
              End Site
              {
                OFFSET -0.891672 -0.009623 -0.837562
              }
            }
          }
        }
      }
      JOINT RightShoulder
      {
        OFFSET -17.192089 -0.613400 1.554494
        CHANNELS 3 Xrotation Yrotation Zrotation
        JOINT RightArm
        {
          OFFSET -7.078612 -20.128798 -9.457155
          CHANNELS 3 Xrotation Yrotation Zrotation
          JOINT RightForeArm
          {
            OFFSET 6.068787 -1.370308 -22.325569
            CHANNELS 3 Xrotation Yrotation Zrotation
            JOINT RightHand
            {
              OFFSET 2.627653 0.279547 -3.282648
              CHANNELS 3 Xrotation Yrotation Zrotation
              End Site
              {
                OFFSET 0.788296 0.083864 -0.984794
              }
            }
          }
        }
      }
    }
  }
  JOINT LeftUpLeg
  {
    OFFSET 11.367086 0.027478 -2.758015
    CHANNELS 3 Xrotation Yrotation Zrotation
    JOINT LeftLeg
    {
      OFFSET 2.451199 -39.057141 -4.768226
      CHANNELS 3 Xrotation Yrotation Zrotation
      JOINT LeftFoot
      {
        OFFSET 10.058204 -39.973237 0.774249
        CHANNELS 3 Xrotation Yrotation Zrotation
        End Site
        {
          OFFSET 3.017461 -11.991971 0.232275
        }
      }
    }
  }
  JOINT RightUpLeg
  {
    OFFSET -11.367086 -0.027478 2.758015
    CHANNELS 3 Xrotation Yrotation Zrotation
    JOINT RightLeg
    {
      OFFSET -4.668361 -37.080477 -5.635053
      CHANNELS 3 Xrotation Yrotation Zrotation
      JOINT RightFoot
      {
        OFFSET -2.542494 -41.040053 5.594103
        CHANNELS 3 Xrotation Yrotation Zrotation
        End Site
        {
          OFFSET -0.762748 -12.312016 1.678231
        }
      }
    }
  }
}
MOTION
Frames: 17
Frame Time: 0.083333
6.360846 59.991685 18.258120 -1.205293 -0.044639 -0.235813 -1.205293 -0.044639 -0.235813 -1.243356 -1.481884 -2.959401 -2.032140 -3.527296 -2.892646 5.000000 0.000000 0.000000 27.492183 -17.076446 30.766261 24.391074 -6.332087 -2.499652 0.000000 0.000000 0.000000 0.000000 0.000000 0.000000 19.855172 -9.528988 2.325804 9.503021 -4.445086 0.462923 -23.452105 -27.998999 -12.704842 0.000000 0.000000 0.000000 17.225727 -1.076174 7.804128 2.768143 0.630080 10.639571 0.000000 0.000000 0.000000 -17.588373 2.183490 -4.873352 -15.239875 0.931702 -0.109140 0.000000 0.000000 0.000000
4.930019 59.992452 19.197261 -2.439222 -0.519042 -3.002252 -2.439222 -0.519042 -3.002252 0.201373 -1.778814 -4.495745 -0.875202 -4.966977 -4.631992 5.000000 0.000000 0.000000 25.953268 -12.273298 22.808763 27.975285 -5.702110 -2.934605 0.000000 0.000000 0.000000 0.000000 0.000000 0.000000 20.316532 -14.205616 8.681896 6.161498 -5.478651 0.389895 0.000000 0.000000 0.000000 0.000000 0.000000 0.000000 23.457039 -1.253388 8.168826 0.488998 0.274236 10.358615 0.000000 0.000000 0.000000 -17.751657 2.156188 -8.380991 -22.313856 1.086544 -0.504774 0.000000 0.000000 0.000000
3.747599 59.996091 14.963378 -2.923228 -0.780750 -4.435576 -2.923228 -0.780750 -4.435576 1.331327 -1.810214 -5.341780 0.462388 -5.906131 -6.083181 5.000000 0.000000 0.000000 5.461069 -1.867217 5.649665 34.039037 -4.127469 -3.760059 0.000000 0.000000 0.000000 0.000000 0.000000 0.000000 12.385127 -12.433741 11.753806 8.218318 -5.308465 0.404683 0.000000 0.000000 0.000000 0.000000 0.000000 0.000000 28.628179 -1.385610 8.398183 -0.055269 0.199900 10.256069 0.000000 0.000000 0.000000 -20.129271 2.274717 -8.111575 -28.793846 0.129195 -4.295439 0.000000 0.000000 0.000000
2.581564 59.998701 8.651485 -1.789860 -0.713338 -4.232385 -1.789860 -0.713338 -4.232385 0.310257 -1.879328 -4.745734 0.190055 -6.182148 -6.237508 5.000000 0.000000 0.000000 1.874017 5.289769 -7.625477 24.569883 -4.344304 -2.630321 0.000000 0.000000 0.000000 0.000000 0.000000 0.000000 7.764084 -6.297241 5.342894 7.588979 -2.724409 0.433661 0.000000 0.000000 0.000000 0.000000 0.000000 0.000000 23.702024 -1.087639 7.654725 -2.026759 -0.027820 12.305833 0.000000 0.000000 0.000000 -18.637195 2.177124 -9.620727 -28.571410 0.666255 -2.860258 0.000000 0.000000 0.000000
1.711049 59.998867 3.909007 -0.048651 -0.576044 -3.608218 -0.048651 -0.576044 -3.608218 0.034062 -1.269638 -3.105187 -0.134536 -3.689256 -3.683184 5.000000 0.000000 0.000000 2.161892 5.500052 -7.810414 19.484395 -1.247157 -2.002327 0.000000 0.000000 0.000000 0.000000 0.000000 0.000000 1.898398 0.147144 -1.673741 9.871862 0.519648 0.561097 0.000000 0.000000 0.000000 0.000000 0.000000 0.000000 12.725144 -0.832409 6.627877 -5.756902 -0.518363 13.499289 0.000000 0.000000 0.000000 -18.925303 2.148663 -12.616877 -25.158946 1.722753 0.279373 0.000000 0.000000 0.000000
2.164120 59.998775 3.211013 2.971619 -0.317770 -2.073728 2.971619 -0.317770 -2.073728 -0.147305 -0.232145 -0.518155 -0.593411 0.088330 0.207053 5.000000 0.000000 0.000000 4.548146 4.278535 -4.486860 23.451911 0.145633 -2.460147 -12.039250 14.538592 9.182061 0.000000 0.000000 0.000000 -2.763693 1.231644 -0.339415 12.401206 2.152166 0.740428 0.000000 0.000000 0.000000 0.000000 0.000000 0.000000 4.221932 -0.315691 3.199655 -6.410151 -0.635833 13.483828 0.000000 0.000000 0.000000 -21.336461 2.242950 -11.885192 -20.382858 1.687747 1.160257 0.000000 0.000000 0.000000
3.084404 59.997387 4.385714 4.788507 0.086277 1.215588 4.788507 0.086277 1.215588 -0.136700 0.922240 2.344342 -0.215506 2.641957 2.782788 5.000000 0.000000 0.000000 11.593012 3.084850 1.668155 27.555756 1.833409 -2.877138 -20.210918 38.661399 21.222152 0.000000 0.000000 0.000000 -7.691342 0.783151 4.762380 10.947301 3.539440 0.687036 0.000000 0.000000 0.000000 0.000000 0.000000 0.000000 1.198871 0.415494 -2.953179 -2.179070 0.076009 17.011746 0.000000 0.000000 0.000000 -25.151994 2.405129 -9.742176 -15.030539 1.339175 1.437071 0.000000 0.000000 0.000000
2.495143 59.995217 4.770275 5.409916 0.408067 4.264097 5.409916 0.408067 4.264097 0.370970 1.537279 3.827068 0.735561 4.131068 4.376424 5.000000 0.000000 0.000000 17.420421 5.598867 1.209815 27.370475 3.637290 -2.846207 -17.225868 40.437821 20.706596 0.000000 0.000000 0.000000 -9.019121 0.631275 6.349685 11.789141 3.622251 0.758100 0.000000 0.000000 0.000000 0.000000 0.000000 0.000000 -2.059198 0.418128 -5.267718 -0.154560 0.368000 21.059476 0.000000 0.000000 0.000000 -23.346008 2.420512 -8.582786 -12.709497 1.312662 1.999588 0.000000 0.000000 0.000000
0.686243 59.994999 8.894072 5.189963 0.478081 4.818761 5.189963 0.478081 4.818761 0.398595 1.707070 4.272933 1.043735 4.559886 4.890479 5.000000 0.000000 0.000000 14.778910 5.011676 0.618126 23.967455 3.389489 -2.558499 0.000000 0.000000 0.000000 0.000000 0.000000 0.000000 -5.330276 -1.171827 7.148758 11.141425 3.184585 0.720880 -49.705701 2.563788 -28.103997 0.000000 0.000000 0.000000 -1.809121 0.282251 -3.895581 3.107325 0.597438 22.202084 0.000000 0.000000 0.000000 -24.757422 2.587817 -7.433788 -11.330977 0.947317 0.998021 0.000000 0.000000 0.000000
-0.307804 59.994804 16.485582 2.869095 0.506147 4.232701 2.869095 0.506147 4.232701 0.233199 1.184974 3.007505 0.834249 3.294093 3.571937 5.000000 0.000000 0.000000 7.245546 2.762215 -0.755077 18.273323 1.485079 -2.038254 0.000000 0.000000 0.000000 0.000000 0.000000 0.000000 -1.936726 -0.489068 2.832305 5.969386 1.052490 0.509129 0.000000 0.000000 0.000000 0.000000 0.000000 0.000000 -0.106299 -0.251858 1.142338 6.095189 0.794936 19.318300 0.000000 0.000000 0.000000 -27.931316 2.885095 -5.937819 -12.426685 0.577536 -0.658184 0.000000 0.000000 0.000000
-1.647584 59.994305 26.723478 0.878538 0.258366 2.253899 0.878538 0.258366 2.253899 -0.379229 -0.124888 0.048115 -0.245523 0.003790 0.314545 5.000000 0.000000 0.000000 0.567274 4.888143 -7.777160 22.614162 -2.608585 -2.397241 0.000000 0.000000 0.000000 0.000000 0.000000 0.000000 3.839857 -0.775152 -3.626452 -2.873189 -4.171467 0.315312 0.000000 0.000000 0.000000 0.000000 0.000000 0.000000 6.138175 -1.239626 8.184109 4.484163 0.824557 14.551869 0.000000 0.000000 0.000000 -27.473640 2.937989 -5.116103 -16.512505 -0.090296 -3.305019 0.000000 0.000000 0.000000
-3.001787 59.997398 33.742923 -2.414264 -0.305356 -1.900815 -2.414264 -0.305356 -1.900815 -1.228621 -2.130566 -4.340241 -1.331857 -4.985859 -4.528087 5.000000 0.000000 0.000000 4.406610 7.814142 -9.721681 33.754839 -4.427340 -3.787363 0.000000 0.000000 0.000000 0.000000 0.000000 0.000000 14.340002 -18.329395 13.214539 -0.166217 -9.829547 0.529056 124.791340 -35.614461 69.049327 0.000000 0.000000 0.000000 19.397567 -2.142365 11.082062 4.393682 0.825877 11.284414 0.000000 0.000000 0.000000 -28.288326 3.108866 -3.976966 -24.906413 -1.880014 -8.814824 0.000000 0.000000 0.000000
-1.961476 60.001305 33.870952 -1.612820 -0.879995 -5.705674 -1.612820 -0.879995 -5.705674 -0.512412 -3.315274 -7.326954 0.114148 -7.766855 -7.719686 5.000000 0.000000 0.000000 6.753973 8.219203 -8.599838 39.286571 -5.280453 -4.541138 0.000000 0.000000 0.000000 0.000000 0.000000 0.000000 19.908199 -44.990775 43.881195 15.728143 -10.413236 0.106667 0.000000 0.000000 0.000000 0.000000 0.000000 0.000000 26.460002 -2.876001 12.541489 0.815766 0.298607 8.770915 0.000000 0.000000 0.000000 -25.380078 2.856899 -4.147626 -32.193621 -4.459781 -14.701767 0.000000 0.000000 0.000000
1.920813 60.003622 24.166027 1.948344 -1.309518 -9.394745 1.948344 -1.309518 -9.394745 -0.208367 -2.755302 -6.369809 0.747783 -7.484717 -7.812748 5.000000 0.000000 0.000000 6.336537 8.018731 -8.557893 32.867651 -4.979783 -3.648845 0.000000 0.000000 0.000000 0.000000 0.000000 0.000000 22.514978 -35.357528 30.511469 19.973353 -5.885133 0.266748 0.000000 0.000000 0.000000 0.000000 0.000000 0.000000 24.426087 -2.611245 12.005369 0.455601 0.219027 6.843958 0.000000 0.000000 0.000000 -20.131854 2.360093 -5.159070 -32.520308 -5.450569 -16.806335 0.000000 0.000000 0.000000
5.283338 60.003128 12.406824 2.678166 -1.288194 -9.596355 2.678166 -1.288194 -9.596355 -0.178479 -2.492877 -5.793949 0.294963 -6.873510 -6.990065 5.000000 0.000000 0.000000 3.223648 4.807221 -5.940905 22.826183 -4.985753 -2.329546 0.000000 0.000000 0.000000 0.000000 0.000000 0.000000 17.639067 -17.907254 13.403673 14.353069 -1.394700 0.689449 0.000000 0.000000 0.000000 0.000000 0.000000 0.000000 16.900848 -1.956196 10.984742 0.388681 0.182976 6.095323 0.000000 0.000000 0.000000 -18.270733 2.217960 -6.512316 -24.151247 -3.295477 -12.732692 0.000000 0.000000 0.000000
8.395340 60.001706 4.233851 3.175782 -1.026484 -7.599397 3.175782 -1.026484 -7.599397 -0.181317 -1.767157 -4.176648 -0.622933 -4.855999 -4.656974 5.000000 0.000000 0.000000 4.159525 2.411159 -1.523160 21.123007 -3.477267 -2.159640 0.000000 0.000000 0.000000 0.000000 0.000000 0.000000 12.159004 1.711645 -10.122803 10.875959 -0.426377 0.585343 0.000000 0.000000 0.000000 0.000000 0.000000 0.000000 13.432486 -1.496953 9.547733 -4.297510 -0.693874 6.523463 0.000000 0.000000 0.000000 -15.094329 2.069500 -7.938359 -17.889104 -0.251479 -2.829162 0.000000 0.000000 0.000000
11.092587 59.999858 2.534222 6.554267 -0.591967 -5.207197 6.554267 -0.591967 -5.207197 -0.742317 -0.879029 -1.821997 -1.590392 -1.269968 -0.940376 5.000000 0.000000 0.000000 4.169709 3.029118 -2.464282 17.515669 -1.431516 -1.851192 0.000000 0.000000 0.000000 0.000000 0.000000 0.000000 -0.150003 2.944185 -5.756023 12.497626 1.094809 0.678918 0.000000 0.000000 0.000000 0.000000 0.000000 0.000000 9.595159 -0.962170 7.262989 -5.768939 -0.784759 10.842553 0.000000 0.000000 0.000000 -12.395590 1.991749 -6.744160 -8.359056 2.030623 6.932076 0.000000 0.000000 0.000000
